<svg width="19" height="15" viewBox="0 0 19 15" fill="none" xmlns="http://www.w3.org/2000/svg">
<path d="M18.4723 7.52061C18.6123 7.52061 18.7465 7.47141 18.8454 7.38382C18.9444 7.29623 19 7.17743 19 7.05356C19 6.92969 18.9444 6.8109 18.8454 6.72331C18.7465 6.63572 18.6123 6.58651 18.4723 6.58651L1.79769 6.58651L8.28813 0.841807C8.38425 0.75372 8.43744 0.635743 8.43624 0.513284C8.43503 0.390825 8.37954 0.273683 8.2817 0.187088C8.18387 0.100494 8.05152 0.0513748 7.91316 0.0503106C7.77481 0.0492465 7.64151 0.0963224 7.54199 0.181399L0.154497 6.72009C0.0555725 6.80767 0 6.92645 0 7.05029C0 7.17414 0.0555725 7.29291 0.154497 7.3805L7.54199 13.9192C7.64151 14.0043 7.77481 14.0513 7.91316 14.0503C8.05152 14.0492 8.18387 14.0001 8.2817 13.9135C8.37954 13.8269 8.43503 13.7098 8.43624 13.5873C8.43744 13.4648 8.38425 13.3469 8.28813 13.2588L1.79769 7.51407L18.4723 7.51407V7.52061Z" fill="black"/>
</svg>
