<svg width="51" height="51" viewBox="0 0 51 51" fill="none" xmlns="http://www.w3.org/2000/svg">
<path d="M17.8475 19.3035L22.9501 2.55005L28.0552 19.3061L43.3501 24.8982L28.1725 30.9264L22.9501 48.45L17.7277 30.9264L2.55005 24.8982L17.8475 19.3035Z" stroke="#005596" stroke-width="2" stroke-linejoin="round"/>
<path d="M43.5668 34.6137C43.5605 34.5609 43.5349 34.5124 43.4948 34.4776C43.4548 34.4427 43.4032 34.424 43.3501 34.425C43.297 34.424 43.2454 34.4427 43.2054 34.4776C43.1653 34.5124 43.1397 34.5609 43.1333 34.6137C42.6259 39.6984 42.2536 41.185 37.1714 41.6644C37.1184 41.6683 37.0688 41.6919 37.0324 41.7306C36.9961 41.7694 36.9756 41.8204 36.9751 41.8735C36.9751 41.9832 37.0592 42.0724 37.1714 42.0826C42.1822 42.5544 42.6182 44.3674 43.1333 49.5363C43.1461 49.6434 43.2379 49.725 43.3501 49.725C43.4623 49.725 43.5541 49.6434 43.5668 49.5363C44.0819 44.3674 44.5154 42.5544 49.5287 42.0826C49.5818 42.0788 49.6314 42.0551 49.6677 42.0164C49.7041 41.9777 49.7246 41.9267 49.7251 41.8735C49.7246 41.8204 49.7041 41.7694 49.6677 41.7306C49.6314 41.6919 49.5818 41.6683 49.5287 41.6644C44.4466 41.185 44.0717 39.7009 43.5668 34.6137Z" fill="#005596" stroke="#005596"/>
<path d="M22.95 51C21.828 51 20.8335 50.2605 20.502 49.1895L15.6315 32.844L1.6065 27.2595C0.6375 26.877 0 25.9335 0 24.8625C0 23.7915 0.6885 22.8735 1.683 22.491L15.7845 17.34L20.502 1.8105C20.8335 0.7395 21.828 0 22.95 0C24.072 0 25.0665 0.7395 25.398 1.8105L30.141 17.34L44.2425 22.491C45.237 22.848 45.9 23.7915 45.9255 24.8625C45.951 25.9335 45.288 26.877 44.319 27.2595L30.294 32.8185L25.4235 49.164C25.092 50.235 24.0975 50.9745 22.9755 50.9745L22.95 51ZM9.7155 24.99L18.666 28.56C19.38 28.8405 19.941 29.4525 20.1705 30.192L22.95 39.525L25.7295 30.192C25.959 29.4525 26.4945 28.8405 27.234 28.56L36.1845 24.99L27.1575 21.7005C26.418 21.42 25.8315 20.808 25.602 20.043L22.95 11.2965L20.298 20.043C20.0685 20.808 19.482 21.42 18.7425 21.7005L9.7155 24.99ZM43.35 51C42.585 51 41.9475 50.4135 41.871 49.6485C41.361 44.676 41.157 43.7325 37.0515 43.35C36.6828 43.3152 36.3403 43.1445 36.0905 42.8711C35.8407 42.5978 35.7015 42.2413 35.7 41.871C35.7 41.106 36.2865 40.4685 37.0515 40.392C41.157 40.0095 41.3865 39.372 41.871 34.476C41.9182 34.1172 42.0943 33.7877 42.3664 33.5491C42.6385 33.3105 42.9881 33.1789 43.35 33.1789C43.7119 33.1789 44.0615 33.3105 44.3336 33.5491C44.6057 33.7877 44.7818 34.1172 44.829 34.476C45.3135 39.372 45.543 40.0095 49.6485 40.392C50.4135 40.4685 51 41.106 51 41.871C51 42.636 50.439 43.2735 49.674 43.35C45.5685 43.7325 45.339 44.676 44.829 49.6485C44.7525 50.4135 44.115 50.9745 43.35 50.9745V51Z" fill="#005596"/>
</svg>
