<svg width="147" height="46" viewBox="0 0 147 46" fill="none" xmlns="http://www.w3.org/2000/svg">
<path d="M81.1237 27.62C80.3797 27.62 79.7277 27.492 79.1677 27.236C78.6077 26.98 78.1397 26.636 77.7637 26.204C77.3957 25.764 77.1197 25.276 76.9357 24.74C76.7517 24.196 76.6597 23.64 76.6597 23.072C76.6597 22.504 76.7517 21.948 76.9357 21.404C77.1277 20.86 77.4077 20.372 77.7757 19.94C78.1517 19.5 78.6237 19.152 79.1917 18.896C79.7597 18.632 80.4237 18.5 81.1837 18.5C81.7757 18.5 82.2837 18.576 82.7077 18.728C83.1397 18.872 83.4997 19.064 83.7877 19.304C84.0757 19.536 84.3037 19.784 84.4717 20.048C84.6477 20.312 84.7797 20.564 84.8677 20.804C84.9637 21.036 85.0237 21.228 85.0477 21.38C85.0797 21.524 85.0957 21.596 85.0957 21.596H83.2597C83.2597 21.596 83.2357 21.524 83.1877 21.38C83.1397 21.236 83.0437 21.068 82.8997 20.876C82.7557 20.676 82.5437 20.504 82.2637 20.36C81.9917 20.208 81.6317 20.132 81.1837 20.132C80.5997 20.132 80.1117 20.276 79.7197 20.564C79.3357 20.844 79.0437 21.208 78.8437 21.656C78.6517 22.096 78.5557 22.556 78.5557 23.036C78.5557 23.532 78.6557 24.008 78.8557 24.464C79.0557 24.912 79.3477 25.28 79.7317 25.568C80.1237 25.848 80.6117 25.988 81.1957 25.988C81.8357 25.988 82.3397 25.824 82.7077 25.496C83.0837 25.168 83.3077 24.724 83.3797 24.164H81.0757V22.712H85.2037V23.396C85.2037 24.324 85.0237 25.104 84.6637 25.736C84.3117 26.36 83.8277 26.832 83.2117 27.152C82.6037 27.464 81.9077 27.62 81.1237 27.62ZM86.4762 27.5V18.62H88.3242V22.16H91.7802V18.62H93.6282V27.5H91.7802V23.768H88.3242V27.5H86.4762ZM94.8092 27.5L97.8332 18.62H100.293L103.317 27.5H101.373L100.809 25.76H97.3292L96.7532 27.5H94.8092ZM97.8452 24.152H100.293L99.0692 20.444L97.8452 24.152ZM104.26 27.5V26.18L108.664 20.24H104.26V18.62H111.064V19.928L106.648 25.88H111.064V27.5H104.26ZM112.492 27.5V18.62H114.34V25.892H118.684V27.5H112.492ZM119.747 27.5L122.771 18.62H125.231L128.255 27.5H126.311L125.747 25.76H122.267L121.691 27.5H119.747ZM122.783 24.152H125.231L124.007 20.444L122.783 24.152ZM128.969 27.5L131.993 18.62H134.453L137.477 27.5H135.533L134.969 25.76H131.489L130.913 27.5H128.969ZM132.005 24.152H134.453L133.229 20.444L132.005 24.152ZM138.648 27.5V18.62H140.34L144.168 24.284V18.62H146.004V27.5H144.288L140.484 21.992V27.5H138.648Z" fill="#005496"/>
<rect y="0.5" width="72" height="45"/>
</svg>
