<svg width="136" height="29" viewBox="0 0 136 29" fill="none" xmlns="http://www.w3.org/2000/svg">
<path d="M100.205 13.8153C103.734 4.39028 106.846 0 110.023 0C114.049 0 116.556 6.71028 119.211 13.8153C121.306 19.4219 123.681 25.7778 126.071 25.7778C128.702 25.7778 131.896 18.2841 133.565 13.8153C133.714 13.4367 133.975 13.1464 134.292 13.0068C134.61 12.8672 134.958 12.8896 135.262 13.069C135.566 13.2484 135.803 13.5706 135.92 13.9662C136.037 14.3619 136.025 14.7994 135.888 15.1847C132.374 24.6097 129.253 29 126.071 29C122.044 29 119.537 22.2897 116.882 15.1847C114.794 9.57805 112.419 3.22222 110.029 3.22222C107.398 3.22222 104.204 10.7159 102.534 15.1847C102.386 15.5633 102.125 15.8536 101.808 15.9932C101.49 16.1328 101.142 16.1104 100.838 15.931C100.533 15.7516 100.297 15.4294 100.18 15.0338C100.063 14.6381 100.074 14.2006 100.212 13.8153H100.205Z" fill="white"/>
<path d="M33.4723 13.8153C37.0015 4.39028 40.1136 0 43.2898 0C47.3163 0 49.8236 6.71028 52.4785 13.8153C54.5735 19.4219 56.9477 25.7778 59.3379 25.7778C61.9687 25.7778 65.1626 18.2841 66.8325 13.8153C66.9811 13.4367 67.2421 13.1464 67.5594 13.0068C67.8767 12.8672 68.225 12.8896 68.5293 13.069C68.8336 13.2484 69.0697 13.5706 69.1868 13.9662C69.3038 14.3619 69.2926 14.7994 69.1554 15.1847C65.6407 24.6097 62.5206 29 59.3379 29C55.3114 29 52.8041 22.2897 50.1492 15.1847C48.0606 9.57805 45.6864 3.22222 43.2962 3.22222C40.6654 3.22222 37.4715 10.7159 35.8016 15.1847C35.653 15.5633 35.392 15.8536 35.0747 15.9932C34.7574 16.1328 34.4092 16.1104 34.1049 15.931C33.8005 15.7516 33.5645 15.4294 33.4474 15.0338C33.3303 14.6381 33.3416 14.2006 33.4787 13.8153H33.4723Z" fill="white" fill-opacity="0.6"/>
<path d="M66.8388 13.8153C70.3679 4.39028 73.48 0 76.6563 0C80.6827 0 83.19 6.71028 85.8449 13.8153C87.94 19.4219 90.3141 25.7778 92.7043 25.7778C95.3352 25.7778 98.5291 18.2841 100.199 13.8153C100.348 13.4367 100.609 13.1464 100.926 13.0068C101.243 12.8672 101.591 12.8896 101.896 13.069C102.2 13.2484 102.436 13.5706 102.553 13.9662C102.67 14.3619 102.659 14.7994 102.522 15.1847C99.0071 24.6097 95.887 29 92.7043 29C88.6779 29 86.1706 22.2897 83.5157 15.1847C81.4271 9.57805 79.0529 3.22222 76.6627 3.22222C74.0319 3.22222 70.838 10.7159 69.168 15.1847C69.0195 15.5633 68.7585 15.8536 68.4412 15.9932C68.1239 16.1328 67.7756 16.1104 67.4713 15.931C67.167 15.7516 66.9309 15.4294 66.8138 15.0338C66.6967 14.6381 66.708 14.2006 66.8452 13.8153H66.8388Z" fill="white" fill-opacity="0.8"/>
<path d="M0.105137 13.8153C3.6343 4.39028 6.74639 0 9.92263 0C13.9491 0 16.4564 6.71028 19.1113 13.8153C21.2063 19.4219 23.5805 25.7778 25.9707 25.7778C28.6015 25.7778 31.7954 18.2841 33.4654 13.8153C33.6139 13.4367 33.8749 13.1464 34.1922 13.0068C34.5095 12.8672 34.8578 12.8896 35.1621 13.069C35.4664 13.2484 35.7025 13.5706 35.8196 13.9662C35.9366 14.3619 35.9254 14.7994 35.7882 15.1847C32.2735 24.6097 29.1534 29 25.9707 29C21.9442 29 19.4369 22.2897 16.782 15.1847C14.6934 9.57805 12.3193 3.22222 9.92905 3.22222C7.29822 3.22222 4.10432 10.7159 2.43439 15.1847C2.28581 15.5633 2.02481 15.8536 1.70752 15.9932C1.39023 16.1328 1.04198 16.1104 0.737663 15.931C0.43335 15.7516 0.197266 15.4294 0.0801811 15.0338C-0.0369034 14.6381 -0.0256348 14.2006 0.111557 13.8153H0.105137Z" fill="white" fill-opacity="0.4"/>
</svg>
