<svg width="77" height="24" viewBox="0 0 77 24" fill="none" xmlns="http://www.w3.org/2000/svg">
<path d="M16.5 21C13.5 21 12.31 16.76 11.05 12.28C10.14 9.04 9 5 7.5 5C4.11 5 4 11.93 4 12H2C2 11.63 2.06 3 7.5 3C10.5 3 11.71 7.25 12.97 11.74C13.83 14.8 15 19 16.5 19C19.94 19 20.03 12.07 20.03 12H22.03C22.03 12.37 21.97 21 16.5 21Z" fill="black"/>
<path d="M34.5 21C31.5 21 30.31 16.76 29.05 12.28C28.14 9.04 27 5 25.5 5C22.11 5 22 11.93 22 12H20C20 11.63 20.06 3 25.5 3C28.5 3 29.71 7.25 30.97 11.74C31.83 14.8 33 19 34.5 19C37.94 19 38.03 12.07 38.03 12H40.03C40.03 12.37 39.97 21 34.5 21Z" fill="black" fill-opacity="0.8"/>
<path d="M52.5 21C49.5 21 48.31 16.76 47.05 12.28C46.14 9.04 45 5 43.5 5C40.11 5 40 11.93 40 12H38C38 11.63 38.06 3 43.5 3C46.5 3 47.71 7.25 48.97 11.74C49.83 14.8 51 19 52.5 19C55.94 19 56.03 12.07 56.03 12H58.03C58.03 12.37 57.97 21 52.5 21Z" fill="black" fill-opacity="0.6"/>
<path d="M70.5 21C67.5 21 66.31 16.76 65.05 12.28C64.14 9.04 63 5 61.5 5C58.11 5 58 11.93 58 12H56C56 11.63 56.06 3 61.5 3C64.5 3 65.71 7.25 66.97 11.74C67.83 14.8 69 19 70.5 19C73.94 19 74.03 12.07 74.03 12H76.03C76.03 12.37 75.97 21 70.5 21Z" fill="black" fill-opacity="0.4"/>
</svg>
