<svg width="42" height="42" viewBox="0 0 42 42" fill="none" xmlns="http://www.w3.org/2000/svg">
<path d="M21.0368 1.27515C31.9599 1.27515 40.8122 10.229 40.8122 21.2751C40.8122 32.3213 31.9599 41.2751 21.0368 41.2751C13.5107 41.2751 6.96605 37.0228 3.62451 30.7644" fill="white"/>
<path d="M21.0368 1.27515C31.9599 1.27515 40.8122 10.229 40.8122 21.2751C40.8122 32.3213 31.9599 41.2751 21.0368 41.2751C13.5107 41.2751 6.96605 37.0228 3.62451 30.7644" stroke="black" stroke-linecap="round" stroke-linejoin="round"/>
<path d="M1.33847 18.6259C1.1375 20.2536 1.1375 21.8998 1.33847 23.5275M9.04616 5.27207C10.3556 4.28357 11.7817 3.45994 13.2923 2.81976M2.7477 13.3675C3.38691 11.857 4.2095 10.4309 5.19693 9.1213M14.8892 26.7028V15.8475C14.8892 14.5921 16.3477 13.7982 17.5354 14.4075L28.1231 19.8382C28.3969 19.9655 28.6286 20.1684 28.791 20.423C28.9534 20.6775 29.0397 20.9732 29.0397 21.2751C29.0397 21.5771 28.9534 21.8728 28.791 22.1273C28.6286 22.3819 28.3969 22.5848 28.1231 22.7121L17.5385 28.1428C16.3477 28.7521 14.8892 27.9582 14.8892 26.7028Z" stroke="black" stroke-linecap="round" stroke-linejoin="round"/>
</svg>
